<?xml version="1.0" encoding="utf-8"?>
<!-- Generator: Adobe Illustrator 26.5.0, SVG Export Plug-In . SVG Version: 6.00 Build 0)  -->
<svg version="1.1" id="Layer_1" xmlns="http://www.w3.org/2000/svg" xmlns:xlink="http://www.w3.org/1999/xlink" x="0px" y="0px"
	 viewBox="0 0 1920 1080" style="enable-background:new 0 0 1920 1080;" xml:space="preserve">
<style type="text/css">
	.st0{fill:#6153FC;}
	.st1{fill:#6153FC;stroke:#6153FC;stroke-miterlimit:10;}
</style>
<g>
	<path class="st0" d="M1462.3,178.4c6.4,13.3,12.2,26.8,13,41.9c0.3,6.2,2.5,10.4,10,10.5c6.6,0.1,13,2.2,15.6-7.3
		c2.5-9.3,8.1-17.5,13.8-25.3c4.9-6.8,9.4-12.4,19.9-9.6c10.8,2.8,15.5,8.8,15.8,19c0.3,8.6,0.8,17.4-0.5,25.9
		c-1.1,7.6-2.6,12.8,7,16.6c9.5,3.8,14,0.8,18.7-6.4c4.8-7.3,11.4-12.9,18.2-18.4c6.7-5.4,12.7-8.9,21.8-3.4
		c8.8,5.3,11.6,11.1,9.6,21.3c-1.8,9.6-3.6,19.1-8.1,27.6c-4,7.5-1.8,11.6,4.1,16.7c6.7,5.8,11,3.8,17-0.9
		c7.2-5.6,15.5-9.7,23.5-14.2c8.3-4.6,15.1-4.8,23,2.9c8,7.9,7.3,14.8,2.9,23c-4.4,8-8.7,16.2-14.2,23.4c-4.4,5.8-6.9,9.6-1.4,16.8
		c5.6,7.4,10,7.5,17.8,4.1c8.3-3.7,17.4-5.6,26.3-7.7c9.2-2.2,16.2-0.2,21.5,9.2c5,8.9,3.5,15.3-2.9,21.8
		c-6.8,6.9-13.2,14.3-20.9,20c-6.5,4.9-7.8,9-4.7,16.5c3.3,8.3,8.7,8.7,15.8,7.2c9.6-2.1,19.1-1.2,28.9-0.4
		c10.8,0.9,14.6,6.6,17.1,15.9c2.6,9.5-2.1,14.5-9,18.7c-7.8,4.7-15.5,10.2-24,13.2c-9.4,3.4-10.4,8.9-9.5,17.6c0.9,9,6.8,8.7,13,9
		c9.3,0.5,17.9,3.7,26.6,6.7c8.2,2.8,13.5,6.8,13.5,17.3c0,10.7-4.3,15.6-13.5,19c-9.2,3.3-18.5,5.8-28.1,6.9
		c-6.6,0.7-11.1,2.2-11.8,10.6c-0.7,7.9,1,12.2,8.8,14.7c9.2,3,17.5,8.1,25.3,14c6.4,4.9,11.1,9.2,8.4,18.9
		c-2.7,9.8-7.5,14.7-17.5,15.7c-9.2,0.9-18.4,1.5-27.5-0.3c-6.6-1.3-12.4-3.2-16.2,5.7c-3.5,8.2-2.1,12.6,4.9,17.8
		c7.3,5.4,13.4,12.5,19.7,19.1c6.6,6.9,8.2,13.7,2.8,23.1c-5.2,9-11.8,10.1-20.4,8.7c-10.1-1.6-20.1-4.2-29.2-8.7c-6-3-10-3-14,3.2
		c-3.6,5.6-8.6,10.1-1.9,17.1c6.8,7,11.3,15.6,15.3,24.5c3.6,8.1,6.1,14.8-1.9,23.1c-8.3,8.6-15.4,7.3-24.3,3.1
		c-8.3-4-16.6-8-23.4-14.3c-6-5.5-10.6-4.9-17.2-0.1c-6.5,4.8-6.4,8.8-3.4,15.1c4.3,9.2,7.2,18.9,8.3,29.2c1,8.8-0.4,15.1-9.3,20.1
		c-8.8,4.9-14.9,3.4-21.9-2.5c-7.5-6.3-14.7-12.8-20-20.9c-4.4-6.8-9.2-7.9-16.7-4.8c-7.7,3.2-9.5,7.3-7.5,15.2
		c2.4,9.4,1.5,19.2,0.6,28.8c-1,9.6-5.2,15-15.4,17.7c-10.5,2.8-15-2.4-20.1-9.2c-5.5-7.4-10.3-15.2-13.3-23.9
		c-2.5-7.1-5.8-10.3-14.3-9.4c-9.1,0.9-10.5,5.9-11.4,12.8c-1.1,9.1-3.6,17.8-6.6,26.5c-3.2,9.2-7.7,13.9-18.6,14.1
		c-11.4,0.2-15.4-5.7-18.3-14.4c-3-8.7-6.3-17.3-6.5-26.6c-0.1-6.8-0.9-11.7-9.7-12c-7.3-0.2-13.8-2.2-16.7,7.8
		c-2.6,9.3-7.8,17.6-13.9,25.3c-4.8,6.1-8.8,11.7-18.7,9.2c-10.5-2.6-15.7-7.8-16.6-18.5c-0.8-9.7-1.7-19.3,0.9-28.8
		c1.9-7.1,0.3-11.3-7.1-14.1c-6.6-2.5-11.2-3.1-15.5,3.7c-5.2,8.2-12.3,14.8-19.8,21.1c-7.1,5.9-13.3,9.2-23.2,3.8
		c-10.5-5.8-11.3-13.4-9-22.9c2-8.4,4-16.9,7.5-24.7c3.4-7.6,3.4-12-3.9-17.8c-7.9-6.3-12.2-2.9-18.3,1.6c-7,5-14.7,9-22.3,13.2
		c-8,4.4-14.8,5.6-23-2.3c-8.8-8.4-7.2-15.8-2.7-24.2c3.8-7.2,7.5-14.5,12.6-20.8c5.3-6.6,8-11,1.8-19.5c-6.9-9.4-12.4-4.5-19.4-2.1
		c-7.7,2.7-15.6,4.9-23.5,6.4c-8.7,1.6-16.2,1.3-21.9-8.6c-5.6-9.7-3-16.2,3.2-22.9s12.5-13.6,19.8-18.9c6.4-4.7,8.4-8.8,5.2-16.4
		c-3.2-7.5-7.1-9.1-15.3-7.5c-9.4,1.7-19.3,1-29,0.7c-9.8-0.3-15-5.3-17.8-15.2c-2.6-9.6,1.8-14.2,8.1-19.1
		c8.1-6.2,16.7-12,26.6-14.9c9.2-2.7,8-8.4,7.6-15.4c-0.5-7.6-3.5-11-11.3-10.8c-9.9,0.2-19-3.4-28.2-6.6
		c-8.1-2.8-13.9-6.3-13.9-17.1c0-10.5,3.8-15.9,13.3-19.1c8.7-2.9,17.3-5.8,26.6-6.6c6.6-0.6,12.6-1,13.6-10.6
		c0.8-8.6-1.1-13.1-9.5-15.7c-8.8-2.7-16.6-7.7-24-13.2c-6.9-5.1-11.8-9.7-9-20.1c2.8-10.2,8.5-14.2,18-15.1
		c10.2-1,20.5-1.7,30.5,0.8c6.9,1.8,10.3-0.2,12.8-6.7c2.3-6.1,4.3-11.1-2.8-15.7c-8.6-5.5-15.6-13.1-22.2-20.9
		c-5.6-6.6-8.5-12.7-3.5-21.9c5.2-9.5,12.1-11.2,21.5-9.7c9.1,1.5,18.2,3.3,26.3,7.6c7.2,3.8,12,4.6,17.8-3.3
		c5.4-7.3,5.4-11.9-0.7-18.2c-6.4-6.6-10.1-15.2-14.2-23.4c-4.3-8.6-4.7-15.3,3-23c7.9-7.8,15.1-7,23.3-2.6
		c7.6,4.1,15,8.7,22.3,13.3c5.3,3.3,9,9.6,16.9,3c6.9-5.8,7.6-10.6,3.6-18.2c-4.3-8.1-5.6-17.3-7.5-26.3s-0.7-15.1,8-20.4
		c9-5.5,15.5-4.7,23.2,1.9c7,6.1,14.1,11.9,19.1,19.7c5.1,8,10.4,8.6,19.1,5.2c8.9-3.5,7.5-8.4,6.5-15.5c-1.2-9-0.9-18.3-0.5-27.4
		c0.4-9.2,3.9-15.8,14.5-18.3c9.8-2.3,15.3,1.1,20.5,8.5c5.3,7.5,10.7,15.1,13.3,23.9c2.8,9.3,7.9,10.9,16.9,10.1
		c9.7-0.9,9.9-6.8,10.4-13.6c0.9-14,6.8-26.4,12.3-38.9C1446,178.4,1454.1,178.4,1462.3,178.4z M1450.8,752.6
		c136.5-0.2,247.4-110.6,247.4-246.3c0.1-135.9-113.1-248.6-248.6-247.4c-136.6,1.2-247.5,111.9-247.6,247
		C1202,642.2,1313.5,752.8,1450.8,752.6z"/>
	<path class="st0" d="M1668,508.9c-0.2,119.9-99.3,218.3-218.6,217c-121-1.3-217.5-98.2-217.3-218.4
		c0.1-119.8,98.3-217.1,218.7-216.8C1571.1,290.9,1668.2,388.5,1668,508.9z M1425.5,681.6c-2.4-34.3-4.3-63.7-6.6-93.1
		c-1.1-13.7-6.5-16.7-19.3-10.6c-28.1,13.3-55.9,27.3-84.1,40.4c-11.5,5.4-11.5,10.4-3,18.9c26.5,26.5,57.5,45.2,93.8,55.2
		C1425.1,697.5,1426,696.7,1425.5,681.6z M1475.8,681.6c-1.9,11.9,4.6,13.3,13.7,11c39-9.9,72.5-29.1,100.6-57.9
		c7.7-7.9,6.5-12.4-2.9-16.9c-28.5-13.5-56.9-27.5-85.4-40.9c-13.2-6.2-17.4-3.7-18.6,10.8C1480.5,619,1478.2,650.4,1475.8,681.6z
		 M1483.3,324.8c-7.9,0.8-8.3,6.6-7.9,12.3c2.5,31.8,5.3,63.7,7.6,95.5c1,13.2,6.7,15.6,18.1,10c27.9-13.7,55.8-27.3,83.9-40.3
		c12.7-5.9,11.1-11.6,2.5-20.1c-23.1-23-49.7-40.3-80.8-50.6C1499,329,1491.1,327.1,1483.3,324.8z M1424.5,332.2
		c0.3-6.7-6.7-6.7-14.4-4.8c-39.7,9.7-73.3,29.7-101.5,59.2c-6.5,6.8-5.2,11,2.9,14.9c29.9,14.2,59.6,28.8,89.5,43
		c9.1,4.3,14.7,1.3,15.6-9.2C1419.1,402.3,1421.6,369.4,1424.5,332.2z M1637.1,510.5c0.8-20-3.2-39.2-8.1-58.4
		c-2.7-10.7-7.9-11.8-16.3-6.1c-26.5,17.9-53.1,35.7-79.6,53.7c-9.6,6.6-9.8,13.3,0.2,20.1c26.6,17.8,53.1,35.7,79.5,53.8
		c9.1,6.3,13.3,3.9,15.9-6.3C1633.7,548.7,1637.8,529.9,1637.1,510.5z M1262.8,510.1c-0.9,20,3.4,39.2,8.4,58.4
		c2.6,9.8,7.1,11.5,15.1,6.1c27-18.1,54-36.2,80.8-54.5c8.8-6,9.6-12.8,0.2-19.2c-26.9-18.3-53.9-36.4-80.7-54.7
		c-8.1-5.5-12.7-4.1-15.3,5.6C1266.1,471,1261.9,490.2,1262.8,510.1z M1508.9,509c0-18.5-6.2-32.4-19.6-44.4
		c-6.5-5.8-13.9-10.9-21.2-3.2c-7.4,7.8-2.1,14.5,4.7,20.5c9.8,8.5,14.7,19.3,12.1,32.5c-3,15.5-14.9,27.3-29.3,29.2
		c-16.1,2.2-30.9-5.7-37.7-20c-6.9-14.7-4.2-28.8,9-41.3c6.4-6.1,12.5-12.6,5.4-20.5c-7.9-8.7-15.6-2.7-22.3,3.5
		c-19.9,18.3-25.1,47.7-12.4,71c12.9,23.8,40.6,36.4,65.8,29.9C1491.3,558.9,1508.8,537,1508.9,509z"/>
</g>
<g>
	<path class="st0" d="M38.5,356.1c2.3-3.6,5.8-4.7,9.8-5.1c32.8-2.9,65.7-6,98.6-3.4c21.6,1.7,41.5,8.2,56.2,25.5
		c9.9,11.6,14.3,25.5,15.9,40.4c2.4,23-1,44.6-18.4,61.5c-7.2,7-15.8,12.4-24.5,19c0.4,1.1,1.2,3.1,2,5
		c13.9,31.4,27.8,62.7,41.7,94.1c3.9,8.9,1.4,12.7-8.5,12.7c-8.7,0-17.3-0.3-26,0.1c-6,0.2-9.4-1.9-11.8-7.5
		c-12.7-29.1-25.8-58-38.5-87c-1.9-4.4-4.2-5.7-9-5.8c-12.7-0.2-25.4-1.1-38-1.7c-1.6-0.1-3.2,0-5.6,0c0,2.5,0,4.6,0,6.7
		c0,28.5,0,57,0,85.5c0,7.7-2,9.7-9.9,9.7c-7.6,0-15.1,0.4-22.6-0.2c-3.9-0.3-7.6-2.4-11.4-3.7C38.5,520,38.5,438.1,38.5,356.1z
		 M82.5,464.4c20.2,0,39.8,1.5,59.1-0.4c20.6-2,33-17.7,33.1-37c0.1-20.2-11.7-35.7-32.5-37.9c-18.3-1.9-37-0.1-55.6,0.2
		c-3.3,0-4.1,2-4.1,5.1c0.2,10.5,0.1,20.9,0.1,31.4C82.5,438.4,82.5,451.1,82.5,464.4z"/>
	<path class="st0" d="M971.8,606.3c-2.2-0.2-3.4-0.4-4.7-0.4c-14.7-0.4-22.9-6.3-26.7-20.6c-8.6-32-16.9-64.2-25.3-96.3
		c-5.2-20-10.4-40.1-15.6-60.1c-1.7-6.6,0.9-10.3,7.8-10.5c8.3-0.2,16.6,0,24.9-0.1c5.8,0,7.7,3.6,9.1,8.5
		c11.7,44.3,23.5,88.6,35.3,132.8c0.5,1.7,1.1,3.3,1.6,5c0.6,0.1,1.1,0.2,1.7,0.3c0.8-1.9,2-3.8,2.5-5.8
		c11.6-43.4,23-86.8,34.5-130.2c2.6-9.8,3.5-10.5,13.6-10.5c6.4,0,12.9,0,19.3,0c8.8,0.1,11.3,3.3,9.1,11.8
		c-11.4,43.6-22.7,87.3-34.2,130.9c-5.6,21.4-11.2,42.9-17.3,64.2c-3.2,11.2-8.5,21.5-16.7,30.1c-9.8,10.4-22.3,15.3-36.3,14.4
		c-15-0.9-29.9-3.3-44.8-5.4c-7.3-1-8.7-3.3-8.9-10.7c-0.1-4.6-0.5-9.2-0.7-13.7c-0.3-5.6,2.6-8.5,8.3-8.3
		c10.3,0.5,20.6,1.1,30.9,1.6c3.3,0.1,6.6,0.2,9.9-0.1c9.3-0.9,15.8-5.6,18.9-14.5C969.4,614.8,970.4,610.9,971.8,606.3z"/>
	<path class="st0" d="M727.9,535.7c0,20.9,0,41.9,0,62.8c0,8.4-3.2,11.6-11.2,9.6c-7.2-1.9-14.3-4.7-20.8-8.3
		c-3.6-2-6.3-2.5-10.1-1.1c-19,6.7-38.4,11.5-58.7,11c-26.2-0.6-43.7-14.5-49.6-40.1c-2.9-12.7-2.9-25.6-0.2-38.3
		c4-18.4,16.3-29.5,34.1-33.7c13.2-3.1,26.8-4.2,40.3-5.7c9.9-1.1,19.8-1.5,29.7-2.5c1.4-0.1,3.5-2.1,3.6-3.4
		c0.4-4,0.4-8.1-0.1-12.1c-1.4-11.4-9.3-19-20.8-18.7c-19.5,0.5-39,1.3-58.4,2.9c-15.6,1.3-16.8,0.9-17.4-14.6
		c-0.2-5-0.2-9.9-0.4-14.9c-0.1-4.4,2-6.9,6.4-7.4c18.1-2.2,36.1-5,54.2-6.3c11.6-0.8,23.6-0.6,35.1,1.1c25.4,3.6,41.8,21.3,42.9,47
		c1.1,24.2,0.2,48.5,0.2,72.7C727.2,535.7,727.5,535.7,727.9,535.7z M685.2,522.9c-1.4-0.2-2.1-0.5-2.8-0.4c-14,0.7-28,1.1-41.9,2.4
		c-12.5,1.2-20.5,8.1-21.6,18.5c-0.6,5.5-0.1,11.4,1.2,16.9c2.1,8.8,8.8,14.1,17.9,13.1c14.7-1.5,29.4-4.3,44-6.7
		c1.2-0.2,3-2.3,3-3.6C685.3,549.8,685.2,536.6,685.2,522.9z"/>
	<path class="st0" d="M417.6,511.5c-0.9,17.1-2.4,33.8-7.8,50.1c-8.3,25.3-25.4,40.6-51.5,45.8c-18.1,3.6-36.3,3.6-54.2-0.4
		c-25.1-5.6-42-20.9-49.3-45.4c-9.8-32.5-9.9-65.5-0.5-98.2c7.5-26,25.2-41.5,51.8-46.8c18.5-3.7,37-3.8,55.2,0.6
		c29.6,7.2,45.6,27.5,51.5,56.2C415.3,485.9,416,498.8,417.6,511.5z M374.2,513.4c-1-10-1.5-19-3-27.8
		c-3.1-19.1-12.6-29.3-29.7-32.2c-4-0.7-8.1-0.5-12.1-0.5c-19.9,0.1-31.9,9.7-35.7,29.1c-3.9,20.2-3.8,40.5,0,60.7
		c3.1,16.4,12.4,25.4,28.4,28.1c4.5,0.8,9.2,0.6,13.7,0.5c19.1-0.6,30.3-9.3,34.4-27.9C372.4,533.3,373,522.8,374.2,513.4z"/>
	<path class="st0" d="M502.4,501.3c0,16.7-0.3,33.4,0.1,50.1c0.3,13.4,5.8,18.4,19.3,18.6c7.3,0.1,14.7-0.6,22-0.8
		c5.8-0.1,8,2.1,8.4,7.7c0.4,7,0.7,13.9,1.1,20.9c0.3,5-1.7,7.8-6.9,8.8c-17.1,3.1-34,5.5-51.4,2.1c-17-3.3-27.9-13.1-31.6-29.7
		c-2.3-10.5-3.5-21.4-3.7-32.1c-0.5-27.7-0.3-55.5,0-83.2c0.1-5.4-1.7-7.2-6.9-6.6c-3.3,0.4-6.6,0.2-9.9-0.1
		c-4.7-0.4-7.4-2.8-7.3-7.9c0.1-7.5,0.1-15.1,0-22.6c-0.1-5,2.6-7.5,7.3-7.9c3.7-0.3,7.4-0.4,11-0.1c4.8,0.4,6-1.6,5.8-6
		c-0.3-7.1,0.1-14.3-0.1-21.5c-0.2-5.1,1.9-7.9,6.8-9c8.8-2,17.5-4.2,26.3-6.2c5.6-1.3,8.9,1.3,9,7.1c0.1,10.1,0.2,20.2,0,30.3
		c-0.1,4.1,1.3,5.4,5.4,5.3c11.8-0.2,23.6-0.1,35.3-0.1c8.4,0,10.1,1.8,10.2,9.9c0,6.6,0,13.2,0,19.8c0,6.7-2.1,8.8-8.9,8.9
		c-11.6,0.1-23.2,0-34.8,0c-7.1,0-7.1,0-7.1,7.3c0,12.3,0,24.6,0,36.9C501.9,501.3,502.2,501.3,502.4,501.3z"/>
	<path class="st0" d="M817.7,437.1c5.7-3.4,10.2-6.1,14.8-8.7c10-5.6,20.6-9.5,32.1-11.1c6.9-0.9,10.2,1.7,10.3,8.5
		c0.1,7.3,0,14.7,0,22c0,5.3-2.4,7.9-7.8,8.6c-17.4,2.2-32.7,9.6-46.2,20.5c-1.9,1.5-3,4.9-3,7.5c-0.2,36.9-0.1,73.8-0.1,110.7
		c0,9.2-1.5,10.7-11,10.7c-7,0-14,0-21,0c-8.6,0-10.6-2.1-10.6-10.8c0-13.2,0-26.4,0-39.7c0-41.7,0-83.4,0-125.1
		c0-10.1,1.9-11.9,11.8-11.9c7,0,14,0,21,0c7.7,0.1,9.7,2.1,9.8,9.8C817.7,430.7,817.7,433.3,817.7,437.1z"/>
</g>
<rect x="1893.9" y="370" class="st1" width="24.1" height="276.7"/>
</svg>
